HIERARCHY
ROOT Hips
{
 OFFSET 0.000000 0.000000 0.000000
 CHANNELS 6 Xposition Yposition Zposition Yrotation Xrotation Zrotation
 JOINT Chest
 {
  OFFSET 0.000000 9.585900 0.002600
  CHANNELS 3 Yrotation Xrotation Zrotation
  JOINT Chest2
  {
   OFFSET 0.000000 9.601200 -0.005300
   CHANNELS 3 Yrotation Xrotation Zrotation
   JOINT Chest3
   {
    OFFSET 0.000000 9.561800 0.000000
    CHANNELS 3 Yrotation Xrotation Zrotation
    JOINT Chest4
    {
     OFFSET 0.000000 9.552100 0.000000
     CHANNELS 3 Yrotation Xrotation Zrotation
     JOINT Neck
     {
      OFFSET 0.000000 14.453000 0.000000
      CHANNELS 3 Yrotation Xrotation Zrotation
      JOINT Head
      {
       OFFSET 0.000000 8.936500 -0.011300
       CHANNELS 3 Yrotation Xrotation Zrotation
       End Site
       {
        OFFSET 0.000000 17.073600 -0.006000
       }
      }
     }
     JOINT RightCollar
     {
      OFFSET -2.921100 9.558500 0.000000
      CHANNELS 3 Yrotation Xrotation Zrotation
      JOINT RightShoulder
      {
       OFFSET -13.519700 0.000000 0.000000
       CHANNELS 3 Yrotation Xrotation Zrotation
       JOINT RightElbow
       {
        OFFSET 0.000000 -29.696600 0.000000
        CHANNELS 3 Yrotation Xrotation Zrotation
        JOINT RightWrist
        {
         OFFSET 0.000000 -24.004700 0.000000
         CHANNELS 3 Yrotation Xrotation Zrotation
         End Site
         {
          OFFSET 0.000000 -17.728500 0.000000
         }
        }
       }
      }
     }
     JOINT LeftCollar
     {
      OFFSET 2.921100 9.558500 0.000000
      CHANNELS 3 Yrotation Xrotation Zrotation
      JOINT LeftShoulder
      {
       OFFSET 13.519700 0.000000 0.000000
       CHANNELS 3 Yrotation Xrotation Zrotation
       JOINT LeftElbow
       {
        OFFSET 0.000000 -29.696600 0.000000
        CHANNELS 3 Yrotation Xrotation Zrotation
        JOINT LeftWrist
        {
         OFFSET 0.000000 -24.004700 0.000000
         CHANNELS 3 Yrotation Xrotation Zrotation
         End Site
         {
          OFFSET 0.000000 -17.728500 0.000000
         }
        }
       }
      }
     }
    }
   }
  }
 }
 JOINT RightHip
 {
  OFFSET -7.771700 -0.012900 -0.001300
  CHANNELS 3 Yrotation Xrotation Zrotation
  JOINT RightKnee
  {
   OFFSET 0.000000 -40.869800 0.001200
   CHANNELS 3 Yrotation Xrotation Zrotation
   JOINT RightAnkle
   {
    OFFSET 0.000000 -39.717900 0.002100
    CHANNELS 3 Yrotation Xrotation Zrotation
    JOINT RightToe
    {
     OFFSET 0.000000 -4.965400 11.033500
     CHANNELS 3 Yrotation Xrotation Zrotation
     End Site
     {
      OFFSET 0.000000 -1.423100 5.872300
     }
    }
   }
  }
 }
 JOINT LeftHip
 {
  OFFSET 7.771700 -0.012900 -0.001300
  CHANNELS 3 Yrotation Xrotation Zrotation
  JOINT LeftKnee
  {
   OFFSET 0.000000 -40.869800 0.001200
   CHANNELS 3 Yrotation Xrotation Zrotation
   JOINT LeftAnkle
   {
    OFFSET 0.000000 -39.717900 0.002100
    CHANNELS 3 Yrotation Xrotation Zrotation
    JOINT LeftToe
    {
     OFFSET 0.000000 -4.965400 11.033500
     CHANNELS 3 Yrotation Xrotation Zrotation
     End Site
     {
      OFFSET 0.000000 -1.423100 5.872300
     }
    }
   }
  }
 }
}
MOTION
Frames: 15
Frame Time: 0.008333
0.000000 85.388000 0.000000 0.000000 -5.767877 0.000000 0.000000 11.653817 0.000000 0.000000 -5.885947 0.000000 0.000000 -0.000000 0.000000 0.000000 -0.000000 0.000000 0.000000 12.528835 0.000000 0.000000 0.711642 0.000000 0.000000 -0.000000 0.000000 0.000000 0.000000 -90.000000 0.000000 -2.309062 0.000000 0.000000 2.309062 0.000000 0.000000 -0.000000 0.000000 0.000000 -0.000000 90.000000 0.000000 -2.309062 0.000000 0.000000 2.309062 0.000000 0.000000 8.520406 0.000000 0.000000 1.905762 0.000000 -0.000000 -4.658285 0.000000 0.000000 -0.000000 0.000000 0.000000 8.520406 0.000000 0.000000 1.905762 0.000000 -0.000000 -4.658285 0.000000 0.000000 -0.000000 0.000000
-39.533733 62.092574 13.174986 176.834669 -52.071407 -0.405882 3.869888 26.865326 0.851861 0.567568 4.579214 0.130213 0.901319 7.263146 0.208003 2.935405 21.816794 1.103042 4.789327 17.389018 4.278825 7.426684 -3.582886 6.326720 6.899133 6.579656 6.545306 2.714049 -11.192877 -16.722785 -84.553930 -49.765495 130.919699 1.234750 -4.525836 -9.075885 -9.961544 3.147582 -1.556907 -3.597950 -7.038484 18.904320 87.072607 -52.438270 -127.168206 14.657528 -3.148709 -0.088774 3.250748 -14.857034 -6.320462 -1.356158 61.072259 -5.252377 1.623788 -7.229250 10.576219 0.253128 -0.538189 0.131377 -3.329841 -11.931326 2.222377 24.522190 76.596245 24.819017 0.466087 -11.762342 -3.588837 0.242536 0.645251 0.118593
-39.535272 62.089289 13.174199 176.840151 -52.039159 -0.412228 3.863361 26.842931 0.836640 0.567229 4.576869 0.127491 0.902756 7.261542 0.204737 2.930740 21.811298 1.088112 4.477902 17.418368 4.334748 6.827712 -3.527893 6.530218 6.920946 6.579138 6.562086 2.935919 -11.199110 -16.821801 -84.555715 -49.788306 130.938284 1.341218 -4.435277 -8.859292 -9.992068 3.156660 -1.594449 -3.680549 -7.034567 18.971678 87.143006 -52.528480 -127.192704 14.487421 -2.994444 -0.252246 3.255921 -14.891992 -6.318952 -1.367561 61.078868 -5.263218 1.625080 -7.232589 10.577565 0.251610 -0.541472 0.131605 -3.332050 -11.967285 2.229277 24.519798 76.603763 24.816772 0.458854 -11.769534 -3.588323 0.249865 0.650030 0.119611
-39.540967 62.087518 13.171295 176.857407 -52.016491 -0.404653 3.842683 26.833158 0.798128 0.567483 4.574758 0.125654 0.897983 7.260388 0.200906 2.936048 21.805500 1.079760 4.152921 17.447306 4.390191 6.225950 -3.471958 6.737116 6.932486 6.575664 6.580744 3.135646 -11.200007 -16.913473 -84.581691 -49.820779 130.972697 1.449961 -4.348590 -8.648524 -10.054200 3.173345 -1.673344 -3.731935 -7.044601 19.077944 87.239845 -52.627777 -127.236845 14.324214 -2.831055 -0.415268 3.256939 -14.913336 -6.342039 -1.368267 61.083537 -5.263316 1.598451 -7.223266 10.571115 0.272019 -0.552704 0.139741 -3.337545 -11.993193 2.209971 24.521007 76.609508 24.818491 0.428451 -11.789354 -3.594340 0.283265 0.665473 0.131496
-39.538073 62.087629 13.166942 176.852804 -52.005739 -0.432502 3.857097 26.853402 0.801630 0.567154 4.560939 0.129481 0.902670 7.248362 0.210624 2.925365 21.800973 1.064090 3.837662 17.476677 4.445498 5.626034 -3.416048 6.945765 6.955527 6.573433 6.598866 3.309549 -11.199511 -16.993690 -84.633845 -49.864023 131.021117 1.560476 -4.266894 -8.441502 -10.077051 3.186182 -1.714228 -3.797524 -7.058615 19.148120 87.345304 -52.732055 -127.280806 14.165173 -2.673951 -0.589437 3.256966 -14.922711 -6.311638 -1.366876 61.085342 -5.261109 1.622329 -7.240430 10.585987 0.247511 -0.545769 0.121217 -3.340641 -12.003257 2.245034 24.533831 76.618973 24.828974 0.450196 -11.779379 -3.583351 0.259567 0.650465 0.117936
-39.538239 62.087599 13.162129 176.858010 -51.991915 -0.450865 3.860043 26.848110 0.809107 0.567768 4.559485 0.128587 0.895601 7.252068 0.199911 2.920614 21.796731 1.050536 3.524065 17.500725 4.505297 5.029240 -3.360869 7.152852 6.971516 6.574267 6.611662 3.462977 -11.203899 -17.055535 -84.716635 -49.918689 131.084179 1.673254 -4.185075 -8.240740 -10.072017 3.188247 -1.711412 -3.879761 -7.074834 19.184160 87.455172 -52.838661 -127.323942 14.016652 -2.536954 -0.775408 3.258157 -14.934722 -6.300629 -1.374211 61.087638 -5.263017 1.630620 -7.240890 10.593044 0.238386 -0.550180 0.114818 -3.348736 -12.021254 2.257231 24.553110 76.637663 24.847927 0.468008 -11.783017 -3.579517 0.249194 0.641489 0.111664
-39.539345 62.083976 13.159887 176.870760 -51.948673 -0.470721 3.853461 26.813861 0.808467 0.559833 4.579841 0.107354 0.896436 7.238090 0.204619 2.898248 21.794841 1.022264 3.238181 17.517408 4.577014 4.437828 -3.306570 7.355360 7.008370 6.564636 6.632849 3.591734 -11.203488 -17.105990 -84.831146 -49.984283 131.166672 1.786369 -4.100635 -8.055349 -10.043666 3.185699 -1.695148 -3.955324 -7.096152 19.224810 87.578990 -52.941444 -127.385384 13.880742 -2.412272 -0.968581 3.252317 -14.978381 -6.296544 -1.375878 61.089551 -5.258342 1.628694 -7.242763 10.596512 0.239913 -0.548591 0.109946 -3.361855 -12.068817 2.267838 24.577714 76.646284 24.872535 0.472514 -11.791006 -3.578549 0.246690 0.647086 0.108795
-39.541053 62.084288 13.154462 176.878987 -51.933673 -0.481682 3.836713 26.844561 0.773786 0.573426 4.538520 0.135552 0.892668 7.240651 0.199334 2.890178 21.794526 1.013478 2.922674 17.543763 4.625302 3.854884 -3.251701 7.552236 7.002575 6.579115 6.626265 3.710358 -11.215509 -17.141756 -84.972146 -50.060616 131.270247 1.897341 -4.018120 -7.892963 -10.071800 3.211176 -1.756125 -3.999782 -7.140551 19.323993 87.722806 -53.035898 -127.474625 13.749941 -2.286782 -1.164729 3.247467 -14.989391 -6.297762 -1.357740 61.091253 -5.236264 1.622351 -7.248735 10.595423 0.241124 -0.546888 0.108619 -3.371018 -12.084298 2.271374 24.593126 76.652792 24.886968 0.475238 -11.791051 -3.579470 0.247932 0.645166 0.109434
-39.539966 62.082983 13.150543 176.880928 -51.905013 -0.503101 3.832072 26.837761 0.771682 0.576420 4.535445 0.133402 0.897920 7.227947 0.207322 2.894257 21.789015 1.016676 2.596954 17.575990 4.665387 3.282321 -3.194296 7.743661 7.005018 6.579748 6.627771 3.773137 -11.212659 -17.170946 -85.126253 -50.150419 131.393501 2.009267 -3.941357 -7.750401 -10.087370 3.223815 -1.783526 -4.051181 -7.171451 19.384283 87.875460 -53.124740 -127.577924 13.616306 -2.162519 -1.368749 3.239916 -15.017420 -6.279509 -1.360125 61.089761 -5.237947 1.629954 -7.245974 10.598074 0.230123 -0.549965 0.103834 -3.378348 -12.113491 2.292608 24.622116 76.661971 24.918937 0.474895 -11.802842 -3.583891 0.249630 0.649710 0.110353
-39.538031 62.079542 13.148553 176.880313 -51.858642 -0.525474 3.830241 26.813606 0.774192 0.572128 4.532223 0.130393 0.896205 7.223157 0.205355 2.889161 21.783590 1.010267 2.302458 17.602063 4.711553 2.720625 -3.134379 7.929635 7.021294 6.588221 6.626919 3.805022 -11.229774 -17.172894 -85.287933 -50.252244 131.530541 2.126876 -3.863447 -7.616048 -10.077877 3.230082 -1.799074 -4.091262 -7.204888 19.443248 88.021621 -53.214954 -127.678427 13.479051 -2.049871 -1.590218 3.235858 -15.064678 -6.260360 -1.358662 61.088324 -5.232828 1.637214 -7.244615 10.600147 0.232951 -0.548789 0.100255 -3.390321 -12.163160 2.318771 24.652924 76.673747 24.951408 0.471687 -11.812535 -3.586758 0.255504 0.652600 0.107129
-39.537758 62.076629 13.146255 176.890046 -51.815444 -0.542615 3.816633 26.795747 0.766521 0.570335 4.525207 0.122535 0.894625 7.218477 0.203315 2.860773 21.796997 0.988012 2.040265 17.614752 4.768904 2.170965 -3.074156 8.109667 7.054621 6.579225 6.636626 3.871036 -11.239478 -17.197614 -85.511615 -50.334032 131.662374 2.247861 -3.775898 -7.478044 -10.046437 3.221020 -1.798773 -4.123874 -7.238932 19.501193 88.171148 -53.312978 -127.781783 13.342177 -1.947063 -1.830406 3.229852 -15.107906 -6.253394 -1.368707 61.088987 -5.240904 1.643265 -7.243159 10.605288 0.230336 -0.548389 0.096610 -3.408736 -12.212516 2.326497 24.679123 76.684983 24.978779 0.479280 -11.811319 -3.589911 0.256165 0.647594 0.102748
-39.536494 62.075117 13.143187 176.893281 -51.782076 -0.556791 3.810497 26.789947 0.763981 0.567592 4.521400 0.122622 0.880829 7.239583 0.190238 2.873967 21.772168 0.990201 1.757027 17.638071 4.813530 1.635902 -3.015106 8.285978 7.059190 6.584788 6.634675 3.898840 -11.256496 -17.212289 -85.727619 -50.414424 131.799318 2.369358 -3.682878 -7.333994 -10.048966 3.215045 -1.811069 -4.146243 -7.271116 19.558622 88.346331 -53.419420 -127.904731 13.207746 -1.844547 -2.083672 3.226814 -15.141513 -6.242061 -1.388182 61.090856 -5.257330 1.650187 -7.240630 10.606878 0.225884 -0.543281 0.097463 -3.418860 -12.247858 2.336568 24.693051 76.693509 25.001986 0.473124 -11.815818 -3.600098 0.268184 0.647270 0.105199
-39.533110 62.074032 13.140212 176.892552 -51.751175 -0.577401 3.816386 26.780069 0.775937 0.558703 4.539729 0.114615 0.890914 7.211418 0.198727 2.866120 21.783725 0.981952 1.484625 17.660379 4.859207 1.120624 -2.957068 8.460386 7.039098 6.623311 6.616514 3.928004 -11.310465 -17.202771 -85.932127 -50.498505 131.926767 2.489834 -3.590264 -7.186252 -10.061537 3.204195 -1.820898 -4.140948 -7.291647 19.597397 88.559265 -53.550280 -128.074984 13.075393 -1.743495 -2.343893 3.223487 -15.172461 -6.220356 -1.400270 61.090477 -5.264661 1.652564 -7.234937 10.605829 0.224598 -0.543592 0.097875 -3.428419 -12.280188 2.355800 24.689831 76.707979 25.009428 0.481590 -11.825287 -3.612267 0.267837 0.648995 0.110217
-39.532151 62.073441 13.136972 176.895798 -51.723549 -0.584337 3.814794 26.759968 0.775840 0.557370 4.546656 0.111797 0.890218 7.210195 0.198384 2.861743 21.796478 0.974722 1.225063 17.682179 4.905758 0.628887 -2.899537 8.631980 7.030295 6.630804 6.608333 3.867035 -11.322747 -17.178812 -86.121745 -50.584453 132.090805 2.606020 -3.493772 -7.032442 -10.080252 3.189245 -1.828531 -4.156374 -7.327297 19.662672 88.786281 -53.668668 -128.224808 12.946212 -1.650583 -2.604812 3.221155 -15.199664 -6.217626 -1.409892 61.092301 -5.270048 1.651635 -7.230212 10.608438 0.229019 -0.544016 0.096199 -3.433783 -12.308134 2.361216 24.694295 76.712095 25.015172 0.484599 -11.828361 -3.611369 0.263312 0.650619 0.110429
-39.530251 62.074815 13.132510 176.898722 -51.710451 -0.595293 3.812775 26.775149 0.771947 0.557378 4.545930 0.111138 0.890098 7.209202 0.197415 2.866001 21.795280 0.972833 0.979322 17.703896 4.952196 0.162713 -2.841843 8.798510 7.016033 6.638897 6.600199 3.798280 -11.342021 -17.144734 -86.303616 -50.667732 132.232184 2.718219 -3.389567 -6.871808 -10.101766 3.173720 -1.834825 -4.162251 -7.357325 19.717356 89.050355 -53.812322 -128.409465 12.823604 -1.568724 -2.856249 3.218275 -15.210376 -6.208801 -1.422318 61.093342 -5.278991 1.655102 -7.226132 10.611153 0.229170 -0.546119 0.095839 -3.445368 -12.322364 2.364222 24.708073 76.721772 25.035143 0.493095 -11.824273 -3.615587 0.263209 0.642403 0.109030
